<?xml version="1.0" encoding="UTF-8"?>
<svg xmlns="http://www.w3.org/2000/svg" viewBox="0 0 1600 1148"
     preserveAspectRatio="xMidYMid meet" width="100%" font-family="JetBrains Mono, monospace">
<defs>
  <style type="text/css"><![CDATA[
    @import url('https://fonts.googleapis.com/css2?family=JetBrains+Mono:wght@500;600;700&family=Inter:wght@400;500;600&display=swap');
    .bg            { fill: #1F1B16; }
    .bg-soft       { fill: #1F1B16; }
    .box           { fill: #26221C; stroke: #4A3D32; stroke-width: 1; }
    .box-focal     { fill: #1F2D27; stroke: #D97757; stroke-width: 1.4; }
    .box-future    { fill: #221E18; stroke: #3A312A; stroke-width: 1; stroke-dasharray: 4 3; }
    .box-soft      { fill: #232019; stroke: #3A312A; stroke-width: 1; }
    .label-h       { font-family: 'JetBrains Mono', monospace; fill: #F5F4ED; font-size: 16px; font-weight: 700; letter-spacing: 0.3px; }
    .label         { font-family: 'JetBrains Mono', monospace; fill: #F5F4ED; font-size: 14px; font-weight: 600; }
    .label-sub     { font-family: 'JetBrains Mono', monospace; fill: #9C8B7E; font-size: 11px; letter-spacing: 1.4px; text-transform: uppercase; }
    .label-tiny    { font-family: 'JetBrains Mono', monospace; fill: #6F5F54; font-size: 10px; letter-spacing: 1px; text-transform: uppercase; }
    .label-radial  { font-family: 'JetBrains Mono', monospace; fill: #E0D2C4; font-size: 13px; font-weight: 600; letter-spacing: 0.6px; }
    .label-accent  { font-family: 'JetBrains Mono', monospace; fill: #D97757; font-size: 12px; font-weight: 600; letter-spacing: 1px; text-transform: uppercase; }
    .conn          { stroke: #6F5F54; stroke-width: 1; fill: none; }
    .conn-soft     { stroke: #4A3D32; stroke-width: 1; fill: none; }
    .conn-dashed   { stroke: #4A3D32; stroke-width: 1; fill: none; stroke-dasharray: 4 3; }
    .accent-fill   { fill: #D97757; }
    .accent-bright { fill: #F5B095; }
    .corner-mark   { font-family: 'JetBrains Mono', monospace; fill: #5A5750; font-size: 10px; letter-spacing: 1.4px; text-transform: uppercase; }
  ]]></style>
  <marker id="arrow" viewBox="0 0 10 10" refX="9" refY="5" markerWidth="5" markerHeight="5" orient="auto-start-reverse">
    <path d="M 0 0 L 10 5 L 0 10 z" fill="#6F5F54"/>
  </marker>
</defs>
<rect x="0.5" y="0.5" width="1599" height="1147" rx="10" fill="#2A2520" stroke="#3A312A" stroke-width="1"/>

  <path d="M 0 10 Q 0 0 10 0 L 1590 0 Q 1600 0 1600 10 L 1600 48 L 0 48 Z" fill="#2A2520"/>
  <line x1="0" y1="48" x2="1600" y2="48" stroke="#3A312A" stroke-width="1"/>
  <text x="20" y="29.0" font-family="JetBrains Mono, monospace" font-size="15" fill="#E0D2C4" font-weight="600">claude-seo.app — 03 · sub-skill ecosystem · B</text>
  <circle cx="1516"   cy="24.0" r="9" fill="#fbbf24" stroke="#3A312A" stroke-width="0.7"/>
  <circle cx="1544"   cy="24.0" r="9" fill="#10b981"  stroke="#3A312A" stroke-width="0.7"/>
  <circle cx="1572" cy="24.0" r="9" fill="#ef4444"    stroke="#3A312A" stroke-width="0.7"/>

<g transform="translate(0, 48)">
  <rect class="bg" width="1600" height="1100"/>
  <path d="M 260.0 240.0 L 260.0 495.0" class="conn-soft"/>
<path d="M 650.0 240.0 L 650.0 495.0" class="conn-soft"/>
<path d="M 950.0 240.0 L 950.0 495.0" class="conn-soft"/>
<path d="M 1340.0 240.0 L 1340.0 495.0" class="conn-soft"/>
<path d="M 260.0 860.0 L 260.0 605.0" class="conn-soft"/>
<path d="M 650.0 860.0 L 650.0 605.0" class="conn-soft"/>
<path d="M 950.0 820.0 L 950.0 605.0" class="conn-soft"/>
<path d="M 1340.0 860.0 L 1340.0 605.0" class="conn-soft"/>
<path d="M 260.0 495.0 L 1340.0 495.0" class="conn-soft"/>
<path d="M 260.0 605.0 L 1340.0 605.0" class="conn-soft"/>
<rect x="80.0" y="20.0" width="360" height="220" rx="8" class="box-soft"></rect>
<text x="98.0" y="46.0" class="label-accent" text-anchor="start">AUDIT</text>
<text x="422.0" y="46.0" class="label-tiny" text-anchor="end">03</text>
<rect x="100.0" y="70.0" width="320" height="38" rx="4" class="box"></rect>
<text x="260.0" y="94.0" class="label" text-anchor="middle">seo-audit</text>
<rect x="100.0" y="114.0" width="320" height="38" rx="4" class="box"></rect>
<text x="260.0" y="138.0" class="label" text-anchor="middle">seo-page</text>
<rect x="100.0" y="158.0" width="320" height="38" rx="4" class="box"></rect>
<text x="260.0" y="182.0" class="label" text-anchor="middle">seo-flow</text>
<rect x="470.0" y="20.0" width="360" height="220" rx="8" class="box-soft"></rect>
<text x="488.0" y="46.0" class="label-accent" text-anchor="start">CONTENT</text>
<text x="812.0" y="46.0" class="label-tiny" text-anchor="end">03</text>
<rect x="490.0" y="70.0" width="320" height="38" rx="4" class="box"></rect>
<text x="650.0" y="94.0" class="label" text-anchor="middle">seo-content</text>
<rect x="490.0" y="114.0" width="320" height="38" rx="4" class="box"></rect>
<text x="650.0" y="138.0" class="label" text-anchor="middle">seo-content-brief</text>
<rect x="490.0" y="158.0" width="320" height="38" rx="4" class="box"></rect>
<text x="650.0" y="182.0" class="label" text-anchor="middle">seo-cluster</text>
<rect x="770.0" y="20.0" width="360" height="220" rx="8" class="box-soft"></rect>
<text x="788.0" y="46.0" class="label-accent" text-anchor="start">SCHEMA</text>
<text x="1112.0" y="46.0" class="label-tiny" text-anchor="end">03</text>
<rect x="790.0" y="70.0" width="320" height="38" rx="4" class="box"></rect>
<text x="950.0" y="94.0" class="label" text-anchor="middle">seo-schema</text>
<rect x="790.0" y="114.0" width="320" height="38" rx="4" class="box"></rect>
<text x="950.0" y="138.0" class="label" text-anchor="middle">seo-sitemap</text>
<rect x="790.0" y="158.0" width="320" height="38" rx="4" class="box"></rect>
<text x="950.0" y="182.0" class="label" text-anchor="middle">seo-images</text>
<rect x="1160.0" y="20.0" width="360" height="220" rx="8" class="box-soft"></rect>
<text x="1178.0" y="46.0" class="label-accent" text-anchor="start">TECHNICAL</text>
<text x="1502.0" y="46.0" class="label-tiny" text-anchor="end">03</text>
<rect x="1180.0" y="70.0" width="320" height="38" rx="4" class="box"></rect>
<text x="1340.0" y="94.0" class="label" text-anchor="middle">seo-technical</text>
<rect x="1180.0" y="114.0" width="320" height="38" rx="4" class="box"></rect>
<text x="1340.0" y="138.0" class="label" text-anchor="middle">seo-google</text>
<rect x="1180.0" y="158.0" width="320" height="38" rx="4" class="box"></rect>
<text x="1340.0" y="182.0" class="label" text-anchor="middle">seo-backlinks</text>
<rect x="80.0" y="860.0" width="360" height="220" rx="8" class="box-soft"></rect>
<text x="98.0" y="886.0" class="label-accent" text-anchor="start">AI · SEARCH</text>
<text x="422.0" y="886.0" class="label-tiny" text-anchor="end">03</text>
<rect x="100.0" y="910.0" width="320" height="38" rx="4" class="box"></rect>
<text x="260.0" y="934.0" class="label" text-anchor="middle">seo-geo</text>
<rect x="100.0" y="954.0" width="320" height="38" rx="4" class="box"></rect>
<text x="260.0" y="978.0" class="label" text-anchor="middle">seo-sxo</text>
<rect x="100.0" y="998.0" width="320" height="38" rx="4" class="box"></rect>
<text x="260.0" y="1022.0" class="label" text-anchor="middle">seo-drift</text>
<rect x="470.0" y="860.0" width="360" height="220" rx="8" class="box-soft"></rect>
<text x="488.0" y="886.0" class="label-accent" text-anchor="start">LOCAL · MAPS</text>
<text x="812.0" y="886.0" class="label-tiny" text-anchor="end">02</text>
<rect x="490.0" y="910.0" width="320" height="38" rx="4" class="box"></rect>
<text x="650.0" y="934.0" class="label" text-anchor="middle">seo-local</text>
<rect x="490.0" y="954.0" width="320" height="38" rx="4" class="box"></rect>
<text x="650.0" y="978.0" class="label" text-anchor="middle">seo-maps</text>
<rect x="770.0" y="820.0" width="360" height="300" rx="8" class="box-soft"></rect>
<text x="788.0" y="846.0" class="label-accent" text-anchor="start">COMMERCE · INTL</text>
<text x="1112.0" y="846.0" class="label-tiny" text-anchor="end">05</text>
<rect x="790.0" y="870.0" width="320" height="38" rx="4" class="box"></rect>
<text x="950.0" y="894.0" class="label" text-anchor="middle">seo-ecommerce</text>
<rect x="790.0" y="914.0" width="320" height="38" rx="4" class="box"></rect>
<text x="950.0" y="938.0" class="label" text-anchor="middle">seo-hreflang</text>
<rect x="790.0" y="958.0" width="320" height="38" rx="4" class="box"></rect>
<text x="950.0" y="982.0" class="label" text-anchor="middle">seo-plan</text>
<rect x="790.0" y="1002.0" width="320" height="38" rx="4" class="box"></rect>
<text x="950.0" y="1026.0" class="label" text-anchor="middle">seo-programmatic</text>
<rect x="790.0" y="1046.0" width="320" height="38" rx="4" class="box"></rect>
<text x="950.0" y="1070.0" class="label" text-anchor="middle">seo-competitor-pages</text>
<rect x="1160.0" y="860.0" width="360" height="220" rx="8" class="box-soft"></rect>
<text x="1178.0" y="886.0" class="label-accent" text-anchor="start">EXTENSIONS</text>
<text x="1502.0" y="886.0" class="label-tiny" text-anchor="end">02</text>
<rect x="1180.0" y="910.0" width="320" height="38" rx="4" class="box"></rect>
<text x="1340.0" y="934.0" class="label" text-anchor="middle">seo-dataforseo</text>
<rect x="1180.0" y="954.0" width="320" height="38" rx="4" class="box"></rect>
<text x="1340.0" y="978.0" class="label" text-anchor="middle">seo-image-gen</text>
<rect x="640.0" y="495.0" width="320" height="110" rx="4" class="box-focal"><animate attributeName="opacity" values="0.85;1;0.85" dur="4.2s" repeatCount="indefinite"/></rect>
<text x="800.0" y="545.0" class="label-accent" text-anchor="middle">orchestrator</text>
<text x="800.0" y="565.0" class="label" text-anchor="middle">seo/SKILL.md</text>
  <text x="1580" y="1088" class="corner-mark" text-anchor="end">03 · sub-skill ecosystem · B</text>
</g>
</svg>
